{
	"asset":{
		"generator":"Khronos glTF Blender I/O v3.6.28",
		"version":"2.0"
	},
	"extensionsUsed":[
		"KHR_materials_transmission",
		"KHR_materials_specular",
		"KHR_materials_ior"
	],
	"scene":0,
	"scenes":[
		{
			"name":"Scene",
			"nodes":[
				0
			]
		}
	],
	"nodes":[
		{
			"mesh":0,
			"name":"Cube",
			"rotation":[
				0,
				-0.004611016251146793,
				0,
				0.9999894499778748
			],
			"scale":[
				0.8219296336174011,
				0.8219294548034668,
				0.8219296336174011
			],
			"translation":[
				0.08298859000205994,
				0.7984741926193237,
				0.06617621332406998
			]
		}
	],
	"materials":[
		{
			"doubleSided":true,
			"extensions":{
				"KHR_materials_transmission":{
					"transmissionFactor":1
				},
				"KHR_materials_specular":{
					"specularColorFactor":[
						1,
						1,
						1
					]
				},
				"KHR_materials_ior":{
					"ior":1.6500000953674316
				}
			},
			"name":"Material.001",
			"pbrMetallicRoughness":{
				"metallicFactor":0,
				"roughnessFactor":0.049848929047584534
			}
		}
	],
	"meshes":[
		{
			"name":"Cube.001",
			"primitives":[
				{
					"attributes":{
						"POSITION":0,
						"NORMAL":1,
						"TEXCOORD_0":2
					},
					"indices":3,
					"material":0
				}
			]
		}
	],
	"accessors":[
		{
			"bufferView":0,
			"componentType":5126,
			"count":21930,
			"max":[
				1.8908462524414062,
				2.995534896850586,
				0.25146326422691345
			],
			"min":[
				-30.950321197509766,
				-19.57610321044922,
				-23.368223190307617
			],
			"type":"VEC3"
		},
		{
			"bufferView":1,
			"componentType":5126,
			"count":21930,
			"type":"VEC3"
		},
		{
			"bufferView":2,
			"componentType":5126,
			"count":21930,
			"type":"VEC2"
		},
		{
			"bufferView":3,
			"componentType":5123,
			"count":124416,
			"type":"SCALAR"
		}
	],
	"bufferViews":[
		{
			"buffer":0,
			"byteLength":263160,
			"byteOffset":0,
			"target":34962
		},
		{
			"buffer":0,
			"byteLength":263160,
			"byteOffset":263160,
			"target":34962
		},
		{
			"buffer":0,
			"byteLength":175440,
			"byteOffset":526320,
			"target":34962
		},
		{
			"buffer":0,
			"byteLength":248832,
			"byteOffset":701760,
			"target":34963
		}
	],
	"buffers":[
		{
			"byteLength":950592,
			"uri":"data:application/octet-stream;base64,"
		}
	]
}
